<?xml version="1.0" standalone="no"?>
<!DOCTYPE svg PUBLIC "-//W3C//DTD SVG 20010904//EN"
 "http://www.w3.org/TR/2001/REC-SVG-20010904/DTD/svg10.dtd">
<svg version="1.0" xmlns="http://www.w3.org/2000/svg"
 width="680.000000pt" height="680.000000pt" viewBox="0 0 680.000000 680.000000"
 preserveAspectRatio="xMidYMid meet">
<metadata>
Created by potrace 1.14, written by Peter Selinger 2001-2017
</metadata>
<g transform="translate(0.000000,680.000000) scale(0.100000,-0.100000)"
fill="#000000" stroke="none">
<path d="M5794 6640 c-39 -20 -93 -71 -122 -116 -46 -72 -112 -252 -137 -374
-2 -8 -4 -15 -5 -15 -1 0 -4 -13 -6 -30 -8 -46 -12 -70 -14 -70 -2 0 -3 -10
-14 -85 -3 -25 -8 -61 -11 -80 -11 -74 -21 -159 -30 -270 -4 -36 -8 -87 -11
-115 -3 -27 -7 -93 -9 -145 -2 -52 -11 -119 -19 -149 -14 -50 -14 -56 1 -66
15 -11 15 -20 3 -86 -7 -41 -14 -85 -16 -99 -19 -151 -152 -712 -209 -880 -40
-120 -36 -105 -70 -235 -14 -55 -32 -120 -39 -145 -8 -25 -21 -72 -31 -105 -9
-33 -21 -71 -27 -85 -5 -14 -12 -36 -15 -50 -2 -13 -10 -38 -17 -55 -8 -16
-24 -59 -36 -95 -29 -86 -102 -254 -112 -258 -5 -2 -8 -12 -8 -22 0 -9 -7 -23
-15 -30 -8 -7 -15 -18 -15 -25 0 -7 -6 -17 -13 -23 -10 -8 -18 -1 -34 31 -23
47 -63 143 -83 197 -6 19 -16 44 -20 55 -42 100 -298 877 -307 930 -3 17 -29
143 -38 185 -2 8 -15 62 -30 120 -14 58 -28 116 -31 130 -6 29 -43 156 -54
185 -4 11 -18 52 -30 90 -13 39 -27 74 -31 79 -5 6 -9 15 -9 22 0 22 -72 168
-111 224 -80 117 -131 153 -218 154 -106 1 -173 -61 -201 -184 -10 -45 -7
-364 4 -408 3 -13 8 -58 11 -100 3 -43 7 -88 9 -102 4 -22 14 -118 21 -205 1
-16 5 -55 9 -85 7 -63 15 -133 21 -205 3 -27 7 -68 10 -90 2 -22 6 -67 9 -100
9 -96 16 -167 21 -210 3 -22 7 -62 10 -90 14 -137 16 -163 21 -200 2 -22 6
-65 9 -95 2 -30 6 -71 9 -90 3 -19 8 -66 11 -105 3 -38 9 -90 12 -115 2 -25 7
-63 10 -85 13 -115 1 -517 -22 -735 -3 -25 -7 -72 -10 -105 -4 -33 -8 -71 -10
-85 -2 -14 -7 -45 -10 -69 -3 -23 -7 -55 -10 -70 -2 -14 -9 -55 -14 -91 -6
-36 -13 -76 -16 -90 -8 -36 -14 -70 -21 -115 -3 -22 -8 -43 -10 -46 -2 -3 -6
-20 -9 -38 -6 -34 -32 -143 -42 -176 -13 -42 -11 -163 3 -224 38 -164 127
-251 258 -252 44 -1 62 4 85 22 16 13 30 30 30 37 1 6 5 12 10 12 32 0 128
330 156 530 3 25 8 56 11 70 2 14 7 43 9 65 3 22 7 54 9 70 3 17 8 59 11 95 3
36 8 72 10 80 2 8 7 51 10 95 4 44 9 96 11 115 2 19 6 69 9 110 3 41 7 98 9
125 3 28 8 93 11 145 3 52 8 122 11 155 3 33 5 67 4 75 0 19 1 72 4 125 2 35
5 40 29 42 25 2 41 -12 47 -42 1 -5 7 -21 12 -35 6 -14 11 -29 13 -35 3 -13
23 -59 71 -160 20 -44 38 -82 38 -85 3 -14 96 -169 113 -187 6 -7 20 -23 30
-36 48 -60 127 -86 180 -59 10 5 34 12 55 16 79 14 166 144 312 469 54 118
216 543 216 564 0 7 4 13 8 13 5 0 9 6 9 13 0 10 68 211 90 267 3 8 8 24 10
35 6 33 33 66 51 63 19 -4 24 -26 47 -213 7 -62 17 -134 22 -160 3 -16 7 -43
9 -60 1 -16 5 -46 8 -65 5 -34 10 -68 21 -140 2 -19 7 -46 9 -60 5 -27 23
-148 30 -195 2 -16 5 -30 6 -30 2 0 8 -46 14 -100 2 -22 7 -47 10 -55 2 -8 7
-33 10 -55 3 -22 8 -51 11 -65 3 -14 7 -39 9 -57 3 -18 9 -56 15 -85 5 -29 13
-69 15 -88 3 -19 8 -44 10 -55 6 -28 47 -235 52 -265 5 -29 27 -124 59 -265
13 -55 27 -116 31 -135 10 -45 11 -49 14 -55 1 -3 3 -8 4 -12 1 -5 5 -17 9
-28 3 -11 8 -31 11 -45 5 -24 87 -264 105 -305 29 -67 71 -182 71 -192 0 -7 5
-13 12 -13 6 0 9 -3 6 -6 -6 -5 49 -135 107 -254 36 -72 106 -179 136 -207 27
-25 74 -45 83 -36 3 4 32 6 64 4 54 -2 60 1 103 39 26 22 64 65 84 96 50 76
53 64 -80 389 -5 11 -9 22 -10 25 -1 3 -7 19 -14 35 -6 17 -37 93 -67 170 -30
77 -61 154 -69 170 -35 75 -127 320 -130 348 -3 18 -7 43 -10 57 -3 14 -26
135 -50 270 -25 135 -50 265 -55 290 -6 25 -12 61 -14 80 -2 19 -7 46 -10 60
-3 14 -8 39 -10 55 -3 17 -7 41 -11 55 -3 14 -7 36 -9 50 -9 55 -19 116 -22
135 -2 11 -12 72 -23 135 -12 63 -24 135 -27 160 -3 25 -7 47 -9 50 -2 3 -6
30 -10 60 -4 30 -8 57 -10 60 -2 3 -6 29 -10 59 -4 30 -9 63 -11 75 -5 20 -8
42 -18 111 -3 17 -7 46 -10 65 -7 41 -33 218 -41 275 -3 22 -7 54 -10 70 -6
37 -12 85 -20 145 -3 25 -7 56 -9 70 -3 14 -7 48 -11 75 -3 28 -8 68 -11 90
-12 95 -22 189 -29 255 -3 30 -8 78 -11 105 -2 28 -6 78 -8 111 -2 34 -6 66
-8 70 -7 12 -3 414 4 439 3 11 9 43 12 70 4 28 9 64 12 80 2 17 6 50 9 75 2
25 6 56 9 69 3 13 8 48 11 76 4 49 10 94 21 158 2 15 7 51 10 80 9 84 11 100
19 147 4 25 9 63 11 85 2 22 5 51 8 65 3 14 7 48 10 75 3 28 8 61 10 75 3 14
7 50 10 80 3 30 8 66 10 80 38 219 22 272 -115 364 -63 43 -112 47 -175 16z"/>
<path d="M4118 6024 c-3 -3 -103 -10 -268 -20 -41 -2 -104 -6 -140 -8 -98 -7
-388 -25 -495 -31 -38 -2 -106 -7 -150 -10 -44 -3 -109 -8 -145 -10 -63 -3
-167 -10 -335 -21 -93 -6 -162 -10 -300 -18 -55 -3 -129 -8 -165 -11 -112 -8
-222 -15 -310 -20 -47 -3 -105 -7 -130 -10 -25 -2 -76 -7 -115 -10 -38 -3 -90
-8 -115 -11 -25 -3 -63 -7 -85 -9 -75 -8 -140 -16 -175 -21 -19 -2 -48 -6 -65
-8 -40 -5 -125 -18 -150 -22 -69 -13 -135 -24 -170 -30 -22 -3 -43 -8 -46 -10
-3 -2 -21 -6 -40 -9 -44 -8 -207 -51 -242 -64 -15 -6 -27 -9 -27 -6 0 14 -237
-95 -299 -137 -133 -92 -182 -210 -133 -320 21 -47 62 -98 81 -98 6 0 11 -4
11 -8 0 -8 74 -44 118 -57 31 -9 88 19 104 52 23 46 131 92 333 142 44 10 100
22 125 26 25 4 54 9 65 12 11 2 34 6 50 8 62 9 101 15 125 20 32 6 94 14 145
21 22 2 56 6 75 9 196 25 210 26 360 40 149 15 139 18 145 -42 3 -35 8 -77 20
-173 3 -19 7 -60 10 -90 3 -30 8 -73 10 -95 3 -22 7 -60 9 -85 2 -25 7 -76 11
-115 10 -104 15 -163 20 -230 3 -33 7 -82 9 -110 3 -27 7 -95 10 -150 4 -55 9
-134 12 -175 5 -79 10 -170 20 -390 20 -463 27 -938 30 -2140 1 -652 4 -1194
6 -1205 10 -51 42 -127 68 -163 75 -104 237 -110 324 -10 34 38 70 117 81 175
3 16 7 39 11 53 10 43 2 1650 -8 1650 -4 0 -4 10 0 23 4 12 6 36 5 52 -2 17
-5 125 -7 242 -5 207 -12 486 -21 788 -4 147 -10 285 -20 515 -5 110 -7 152
-20 405 -3 61 -8 137 -10 170 -3 33 -7 94 -10 135 -11 158 -15 207 -20 270 -3
36 -8 90 -10 120 -3 30 -7 76 -10 103 -5 46 -9 90 -20 197 -3 30 -8 66 -10 80
-2 14 -7 50 -10 80 -3 30 -9 69 -12 85 -10 58 -10 76 -2 81 13 8 67 14 169 20
52 2 129 7 170 9 41 2 122 7 180 10 58 3 134 8 170 10 36 3 110 7 165 10 109
5 230 12 370 21 50 3 140 7 200 9 152 6 254 13 295 21 19 3 44 7 55 8 98 10
249 78 295 135 32 37 55 101 51 136 -4 33 -57 117 -98 157 -24 23 -54 40 -80
46 -23 5 -43 8 -45 6z"/>
</g>
</svg>
